<svg xmlns="http://www.w3.org/2000/svg" xmlns:xlink="http://www.w3.org/1999/xlink" width="1280" zoomAndPan="magnify" viewBox="0 0 960 599.999999" height="800" preserveAspectRatio="xMidYMid meet" version="1.0"><defs><g/><clipPath id="0b4fea36bf"><path d="M 276 276 L 316.148438 276 L 316.148438 312 L 276 312 Z M 276 276 " clip-rule="nonzero"/></clipPath><clipPath id="4ffa5091a9"><path d="M 211.148438 207.910156 L 316.148438 207.910156 L 316.148438 392.410156 L 211.148438 392.410156 Z M 211.148438 207.910156 " clip-rule="nonzero"/></clipPath><clipPath id="2a826e91f6"><path d="M 275.402344 264.257812 L 413.402344 264.257812 L 413.402344 391 L 275.402344 391 Z M 275.402344 264.257812 " clip-rule="nonzero"/></clipPath></defs><g clip-path="url(#0b4fea36bf)"><path fill="#2a71cf" d="M 339.929688 311.507812 L 339.929688 276.972656 L 276.621094 276.972656 L 276.621094 311.507812 L 339.929688 311.507812 " fill-opacity="1" fill-rule="nonzero"/></g><g clip-path="url(#4ffa5091a9)"><path fill="#2a71cf" d="M 211.394531 392.082031 L 211.394531 207.910156 L 339.929688 207.910156 L 339.929688 242.441406 L 245.925781 242.441406 L 245.925781 392.082031 L 211.394531 392.082031 " fill-opacity="1" fill-rule="nonzero"/></g><g clip-path="url(#2a826e91f6)"><path fill="#00bf63" d="M 352.144531 390.585938 C 365.46875 389.285156 377.917969 385.046875 387.804688 378.441406 C 392.773438 375.125 399.78125 368.253906 402.828125 363.710938 C 407.277344 357.074219 410.511719 349.101562 412.242188 340.492188 C 412.910156 337.15625 412.992188 331.296875 413.128906 276.863281 L 413.28125 216.910156 L 372.203125 216.910156 L 372.203125 271.808594 C 372.203125 307.894531 372.042969 328.121094 371.742188 330.84375 C 371.195312 335.722656 369.59375 341.554688 367.964844 344.574219 C 365.917969 348.363281 362.148438 351.96875 358.210938 353.894531 C 347.386719 359.195312 331.542969 357.285156 324.03125 349.777344 C 320.207031 345.953125 317.582031 339.792969 316.480469 332.070312 C 316.210938 330.179688 316.042969 307.972656 316.039062 272.976562 L 316.03125 216.910156 L 275.410156 216.910156 L 275.410156 273.6875 C 275.410156 330.648438 275.519531 335.460938 276.976562 342.65625 C 280.578125 360.429688 291.664062 374.574219 308.640625 383.046875 C 321.082031 389.257812 337.1875 392.050781 352.144531 390.589844 Z M 352.144531 390.585938 " fill-opacity="1" fill-rule="nonzero"/></g><g fill="#00bf63" fill-opacity="1"><g transform="translate(471.973924, 371.074765)"><g><path d="M 25.890625 0 L 7.484375 0 L 7.484375 -69.21875 L 48.375 -69.21875 L 48.375 -54.203125 L 25.890625 -54.203125 L 25.890625 -41 L 46.625 -41 L 46.625 -25.984375 L 25.890625 -25.984375 Z M 25.890625 0 "/></g></g></g><g fill="#00bf63" fill-opacity="1"><g transform="translate(525.197161, 371.074765)"><g><path d="M 72.234375 -34.703125 C 72.234375 -23.054688 69.378906 -14.203125 63.671875 -8.140625 C 57.960938 -2.078125 49.597656 0.953125 38.578125 0.953125 C 27.722656 0.953125 19.398438 -2.09375 13.609375 -8.1875 C 7.816406 -14.28125 4.921875 -23.148438 4.921875 -34.796875 C 4.921875 -46.316406 7.800781 -55.113281 13.5625 -61.1875 C 19.320312 -67.257812 27.691406 -70.296875 38.671875 -70.296875 C 49.691406 -70.296875 58.039062 -67.28125 63.71875 -61.25 C 69.394531 -55.226562 72.234375 -46.378906 72.234375 -34.703125 Z M 24.609375 -34.703125 C 24.609375 -21.316406 29.265625 -14.625 38.578125 -14.625 C 43.316406 -14.625 46.828125 -16.25 49.109375 -19.5 C 51.398438 -22.75 52.546875 -27.816406 52.546875 -34.703125 C 52.546875 -41.609375 51.382812 -46.710938 49.0625 -50.015625 C 46.75 -53.316406 43.285156 -54.96875 38.671875 -54.96875 C 29.296875 -54.96875 24.609375 -48.210938 24.609375 -34.703125 Z M 24.609375 -34.703125 "/></g></g></g><g fill="#00bf63" fill-opacity="1"><g transform="translate(603.41129, 371.074765)"><g><path d="M 26.171875 -25.1875 L 26.171875 0 L 7.484375 0 L 7.484375 -69.21875 L 30.15625 -69.21875 C 48.96875 -69.21875 58.375 -62.398438 58.375 -48.765625 C 58.375 -40.742188 54.457031 -34.539062 46.625 -30.15625 L 66.796875 0 L 45.59375 0 L 30.90625 -25.1875 Z M 26.171875 -39.25 L 29.6875 -39.25 C 36.21875 -39.25 39.484375 -42.132812 39.484375 -47.90625 C 39.484375 -52.675781 36.28125 -55.0625 29.875 -55.0625 L 26.171875 -55.0625 Z M 26.171875 -39.25 "/></g></g></g><g fill="#00bf63" fill-opacity="1"><g transform="translate(669.981936, 371.074765)"><g><path d="M 66.328125 -69.21875 L 66.328125 -27.546875 C 66.328125 -18.492188 63.757812 -11.476562 58.625 -6.5 C 53.5 -1.53125 46.109375 0.953125 36.453125 0.953125 C 27.015625 0.953125 19.757812 -1.460938 14.6875 -6.296875 C 9.625 -11.128906 7.09375 -18.070312 7.09375 -27.125 L 7.09375 -69.21875 L 25.890625 -69.21875 L 25.890625 -28.59375 C 25.890625 -23.695312 26.804688 -20.144531 28.640625 -17.9375 C 30.472656 -15.726562 33.171875 -14.625 36.734375 -14.625 C 40.554688 -14.625 43.328125 -15.71875 45.046875 -17.90625 C 46.765625 -20.101562 47.625 -23.695312 47.625 -28.6875 L 47.625 -69.21875 Z M 66.328125 -69.21875 "/></g></g></g><g fill="#2a71cf" fill-opacity="1"><g transform="translate(477.973924, 267.36026)"><g><path d="M 31.265625 0 L 29.140625 -8.125 L 15.0625 -8.125 L 12.859375 0 L 0 0 L 14.140625 -43.515625 L 29.765625 -43.515625 L 44.078125 0 Z M 26.703125 -17.71875 L 24.84375 -24.84375 C 24.40625 -26.414062 23.875 -28.457031 23.25 -30.96875 C 22.625 -33.476562 22.210938 -35.28125 22.015625 -36.375 C 21.835938 -35.363281 21.488281 -33.703125 20.96875 -31.390625 C 20.445312 -29.078125 19.285156 -24.519531 17.484375 -17.71875 Z M 26.703125 -17.71875 "/></g></g></g><g fill="#2a71cf" fill-opacity="1"><g transform="translate(522.647715, 267.36026)"><g><path d="M 33.015625 -13.15625 C 33.015625 -10.46875 32.332031 -8.082031 30.96875 -6 C 29.601562 -3.914062 27.632812 -2.296875 25.0625 -1.140625 C 22.5 0.015625 19.488281 0.59375 16.03125 0.59375 C 13.144531 0.59375 10.722656 0.390625 8.765625 -0.015625 C 6.816406 -0.421875 4.785156 -1.128906 2.671875 -2.140625 L 2.671875 -12.5625 C 4.898438 -11.414062 7.21875 -10.519531 9.625 -9.875 C 12.039062 -9.238281 14.253906 -8.921875 16.265625 -8.921875 C 18.003906 -8.921875 19.28125 -9.222656 20.09375 -9.828125 C 20.90625 -10.429688 21.3125 -11.207031 21.3125 -12.15625 C 21.3125 -12.75 21.144531 -13.265625 20.8125 -13.703125 C 20.488281 -14.148438 19.96875 -14.597656 19.25 -15.046875 C 18.53125 -15.503906 16.609375 -16.4375 13.484375 -17.84375 C 10.660156 -19.125 8.539062 -20.367188 7.125 -21.578125 C 5.71875 -22.785156 4.671875 -24.164062 3.984375 -25.71875 C 3.304688 -27.28125 2.96875 -29.128906 2.96875 -31.265625 C 2.96875 -35.253906 4.414062 -38.363281 7.3125 -40.59375 C 10.21875 -42.832031 14.210938 -43.953125 19.296875 -43.953125 C 23.785156 -43.953125 28.359375 -42.914062 33.015625 -40.84375 L 29.4375 -31.796875 C 25.382812 -33.660156 21.882812 -34.59375 18.9375 -34.59375 C 17.414062 -34.59375 16.304688 -34.320312 15.609375 -33.78125 C 14.921875 -33.25 14.578125 -32.585938 14.578125 -31.796875 C 14.578125 -30.953125 15.015625 -30.191406 15.890625 -29.515625 C 16.773438 -28.847656 19.164062 -27.625 23.0625 -25.84375 C 26.789062 -24.164062 29.378906 -22.363281 30.828125 -20.4375 C 32.285156 -18.507812 33.015625 -16.082031 33.015625 -13.15625 Z M 33.015625 -13.15625 "/></g></g></g><g fill="#2a71cf" fill-opacity="1"><g transform="translate(558.282936, 267.36026)"><g><path d="M 36.125 -29.546875 C 36.125 -24.710938 34.695312 -20.972656 31.84375 -18.328125 C 28.988281 -15.691406 24.9375 -14.375 19.6875 -14.375 L 16.390625 -14.375 L 16.390625 0 L 4.6875 0 L 4.6875 -43.328125 L 19.6875 -43.328125 C 25.15625 -43.328125 29.257812 -42.128906 32 -39.734375 C 34.75 -37.347656 36.125 -33.953125 36.125 -29.546875 Z M 16.390625 -23.921875 L 18.53125 -23.921875 C 20.28125 -23.921875 21.675781 -24.414062 22.71875 -25.40625 C 23.757812 -26.394531 24.28125 -27.753906 24.28125 -29.484375 C 24.28125 -32.410156 22.660156 -33.875 19.421875 -33.875 L 16.390625 -33.875 Z M 16.390625 -23.921875 "/></g></g></g><g fill="#2a71cf" fill-opacity="1"><g transform="translate(597.237236, 267.36026)"><g><path d="M 2.546875 -4.921875 C 2.546875 -6.734375 3.082031 -8.132812 4.15625 -9.125 C 5.238281 -10.113281 6.804688 -10.609375 8.859375 -10.609375 C 10.816406 -10.609375 12.316406 -10.113281 13.359375 -9.125 C 14.410156 -8.132812 14.9375 -6.734375 14.9375 -4.921875 C 14.9375 -3.140625 14.394531 -1.75 13.3125 -0.75 C 12.238281 0.238281 10.753906 0.734375 8.859375 0.734375 C 6.898438 0.734375 5.359375 0.242188 4.234375 -0.734375 C 3.109375 -1.722656 2.546875 -3.117188 2.546875 -4.921875 Z M 2.546875 -4.921875 "/></g></g></g><g fill="#2a71cf" fill-opacity="1"><g transform="translate(615.388012, 267.36026)"><g><path d="M 45.9375 0 L 30.59375 0 L 14.765625 -30.53125 L 14.5 -30.53125 C 14.875 -25.726562 15.0625 -22.0625 15.0625 -19.53125 L 15.0625 0 L 4.6875 0 L 4.6875 -43.328125 L 19.984375 -43.328125 L 35.75 -13.21875 L 35.921875 -13.21875 C 35.648438 -17.582031 35.515625 -21.085938 35.515625 -23.734375 L 35.515625 -43.328125 L 45.9375 -43.328125 Z M 45.9375 0 "/></g></g></g><g fill="#2a71cf" fill-opacity="1"><g transform="translate(666.611064, 267.36026)"><g><path d="M 30.40625 0 L 4.6875 0 L 4.6875 -43.328125 L 30.40625 -43.328125 L 30.40625 -33.9375 L 16.390625 -33.9375 L 16.390625 -27.125 L 29.375 -27.125 L 29.375 -17.71875 L 16.390625 -17.71875 L 16.390625 -9.546875 L 30.40625 -9.546875 Z M 30.40625 0 "/></g></g></g><g fill="#2a71cf" fill-opacity="1"><g transform="translate(700.527478, 267.36026)"><g><path d="M 23.796875 0 L 12.09375 0 L 12.09375 -33.765625 L 1.515625 -33.765625 L 1.515625 -43.328125 L 34.359375 -43.328125 L 34.359375 -33.765625 L 23.796875 -33.765625 Z M 23.796875 0 "/></g></g></g></svg>